<?xml version="1.0" encoding="UTF-8" standalone="no"?>
<!-- Created with Inkscape (http://www.inkscape.org/) -->

<svg
   width="210mm"
   height="297mm"
   viewBox="0 0 210 297"
   version="1.1"
   id="svg5"
   xml:space="preserve"
   inkscape:version="1.2.2 (732a01da63, 2022-12-09)"
   sodipodi:docname="logos.svg"
   xmlns:inkscape="http://www.inkscape.org/namespaces/inkscape"
   xmlns:sodipodi="http://sodipodi.sourceforge.net/DTD/sodipodi-0.dtd"
   xmlns="http://www.w3.org/2000/svg"
   xmlns:svg="http://www.w3.org/2000/svg"><sodipodi:namedview
     id="namedview7"
     pagecolor="#353535"
     bordercolor="#eeeeee"
     borderopacity="1"
     inkscape:showpageshadow="0"
     inkscape:pageopacity="0"
     inkscape:pagecheckerboard="0"
     inkscape:deskcolor="#505050"
     inkscape:document-units="mm"
     showgrid="false"
     showguides="true"
     inkscape:zoom="1.4142136"
     inkscape:cx="401.28308"
     inkscape:cy="92.630984"
     inkscape:window-width="1920"
     inkscape:window-height="1009"
     inkscape:window-x="-8"
     inkscape:window-y="-8"
     inkscape:window-maximized="1"
     inkscape:current-layer="layer1"><sodipodi:guide
       position="-1.4748134,277.62269"
       orientation="1,0"
       id="guide5368"
       inkscape:locked="false" /><sodipodi:guide
       position="216.84502,279.47373"
       orientation="1,0"
       id="guide5370"
       inkscape:locked="false" /><sodipodi:guide
       position="121.70833,156.10938"
       orientation="0,-1"
       id="guide184970"
       inkscape:locked="false" /><sodipodi:guide
       position="161.17688,231.05125"
       orientation="0,-1"
       id="guide1836"
       inkscape:locked="false" /></sodipodi:namedview><defs
     id="defs2"><clipPath
       clipPathUnits="userSpaceOnUse"
       id="clipPath6761"><rect
         style="fill:none;fill-opacity:1;stroke:#000000;stroke-width:0.268512;stroke-linecap:butt;stroke-dasharray:none;paint-order:stroke markers fill"
         id="rect6763"
         width="24.419018"
         height="19.033987"
         x="102.61965"
         y="74.989906" /></clipPath><clipPath
       clipPathUnits="userSpaceOnUse"
       id="clipPath6761-6"><rect
         style="fill:none;fill-opacity:1;stroke:#000000;stroke-width:0.268512;stroke-linecap:butt;stroke-dasharray:none;paint-order:stroke markers fill"
         id="rect6763-5"
         width="24.419018"
         height="19.033987"
         x="102.61965"
         y="74.989906" /></clipPath><clipPath
       clipPathUnits="userSpaceOnUse"
       id="clipPath6761-6-3"><rect
         style="fill:none;fill-opacity:1;stroke:#000000;stroke-width:0.268512;stroke-linecap:butt;stroke-dasharray:none;paint-order:stroke markers fill"
         id="rect6763-5-6"
         width="24.419018"
         height="19.033987"
         x="102.61965"
         y="74.989906" /></clipPath><clipPath
       clipPathUnits="userSpaceOnUse"
       id="clipPath7408"><ellipse
         style="fill:none;fill-opacity:1;stroke:#1a1a1a;stroke-width:0.247513;stroke-linecap:butt;stroke-dasharray:none;paint-order:stroke markers fill"
         id="ellipse7410"
         cx="49.235729"
         cy="123.9684"
         rx="24.876242"
         ry="24.876244" /></clipPath><clipPath
       clipPathUnits="userSpaceOnUse"
       id="clipPath7412"><ellipse
         style="fill:none;fill-opacity:1;stroke:#1a1a1a;stroke-width:0.247513;stroke-linecap:butt;stroke-dasharray:none;paint-order:stroke markers fill"
         id="ellipse7414"
         cx="106.60004"
         cy="123.9684"
         rx="24.876242"
         ry="24.876244" /></clipPath><clipPath
       clipPathUnits="userSpaceOnUse"
       id="clipPath7416"><ellipse
         style="fill:none;fill-opacity:1;stroke:#1a1a1a;stroke-width:0.247513;stroke-linecap:butt;stroke-dasharray:none;paint-order:stroke markers fill"
         id="ellipse7418"
         cx="163.25"
         cy="123.9684"
         rx="24.876242"
         ry="24.876244" /></clipPath><clipPath
       clipPathUnits="userSpaceOnUse"
       id="clipPath7514"><ellipse
         style="fill:none;fill-opacity:1;stroke:#1a1a1a;stroke-width:0.247513;stroke-linecap:butt;stroke-dasharray:none;paint-order:stroke markers fill"
         id="ellipse7516"
         cx="163.25"
         cy="123.96841"
         rx="24.876242"
         ry="24.876244" /></clipPath><clipPath
       clipPathUnits="userSpaceOnUse"
       id="clipPath7609"><ellipse
         style="fill:none;fill-opacity:1;stroke:#1a1a1a;stroke-width:0.247513;stroke-linecap:butt;stroke-dasharray:none;paint-order:stroke markers fill"
         id="ellipse7611"
         cx="106.60004"
         cy="123.96841"
         rx="24.876242"
         ry="24.876244" /></clipPath><clipPath
       clipPathUnits="userSpaceOnUse"
       id="clipPath184904"><g
         id="g184908"><rect
           style="fill:none;fill-opacity:1;stroke:#000000;stroke-width:0.334093;stroke-linecap:butt;stroke-dasharray:none;paint-order:stroke markers fill"
           id="rect184906"
           width="31.068903"
           height="23.160059"
           x="147.38481"
           y="169.95276" /></g></clipPath><clipPath
       clipPathUnits="userSpaceOnUse"
       id="clipPath184910"><g
         id="g184914"><rect
           style="fill:none;fill-opacity:1;stroke:#000000;stroke-width:0.334093;stroke-linecap:butt;stroke-dasharray:none;paint-order:stroke markers fill"
           id="rect184912"
           width="31.068903"
           height="23.160059"
           x="147.38481"
           y="169.95276" /></g></clipPath><clipPath
       clipPathUnits="userSpaceOnUse"
       id="clipPath185561"><circle
         style="fill:none;stroke:#4d4d4d;stroke-width:0.486735;stroke-linecap:round;stroke-linejoin:round;stop-color:#000000"
         id="circle185563"
         cx="117.32442"
         cy="169.48488"
         r="17.256632" /></clipPath></defs><g
     inkscape:label="Layer 1"
     inkscape:groupmode="layer"
     id="layer1"><g
       id="g7627"
       transform="translate(0,106.71741)"><rect
         style="fill:#ffffff;fill-opacity:1;stroke:none;stroke-width:0.2;stroke-linecap:round;paint-order:fill markers stroke"
         id="rect7613"
         width="49.799999"
         height="49.799999"
         x="24.33573"
         y="99.068405"
         inkscape:export-filename="rect184.png"
         inkscape:export-xdpi="25.5"
         inkscape:export-ydpi="25.5" /><g
         id="g7625"
         transform="translate(4.8442814,-3.1456028)"><text
           xml:space="preserve"
           style="font-style:normal;font-variant:normal;font-weight:normal;font-stretch:normal;font-size:9.80569px;line-height:1.25;font-family:'Amiri Quran Colored';-inkscape-font-specification:'Amiri Quran Colored, Normal';font-variant-ligatures:normal;font-variant-caps:normal;font-variant-numeric:normal;font-variant-east-asian:normal;fill:#000000;fill-opacity:1;stroke:none;stroke-width:0.275638"
           x="26.202124"
           y="132.60002"
           id="text7617"><tspan
             sodipodi:role="line"
             id="tspan7615"
             x="26.202124"
             y="132.60002"
             style="font-style:normal;font-variant:normal;font-weight:normal;font-stretch:normal;font-size:9.80569px;font-family:'Amiri Quran Colored';-inkscape-font-specification:'Amiri Quran Colored, Normal';font-variant-ligatures:normal;font-variant-caps:normal;font-variant-numeric:normal;font-variant-east-asian:normal;fill:#000000;stroke-width:0.275638">plans</tspan></text><g
           id="g7623"
           clip-path="url(#clipPath6761-6-3)"
           transform="matrix(1.0267628,0,0,1.0267628,-78.273363,55.722878)"
           style="stroke:#000000"><path
             style="fill:none;stroke:#000000;stroke-width:2.078;stroke-linecap:butt;stroke-linejoin:miter;stroke-dasharray:none;stroke-opacity:1;paint-order:stroke markers fill"
             d="m 127.3767,85.522159 c -1.1587,0.0023 -2.20647,-2.348548 -3.77352,-2.370783 -1.8717,-0.02648 -2.43721,2.343313 -4.37874,2.341113 -1.94149,-0.0026 -2.40098,-2.357462 -4.34941,-2.343014 -1.94845,0.01443 -2.33693,2.426251 -4.29945,2.432595 -1.96253,0.0061 -2.46164,-2.418077 -4.35791,-2.413423 -1.56232,0.0044 -2.71401,2.315771 -3.95283,2.316055"
             id="path7619"
             sodipodi:nodetypes="cszzzsc" /><path
             style="fill:none;stroke:#000000;stroke-width:2.078;stroke-linecap:butt;stroke-linejoin:miter;stroke-dasharray:none;stroke-opacity:1;paint-order:stroke markers fill"
             d="m 127.3767,82.155248 c -1.1587,0.0023 -2.20647,-2.348548 -3.77352,-2.370783 -1.8717,-0.02648 -2.43721,2.343313 -4.37874,2.341113 -1.94149,-0.0026 -2.40098,-2.357462 -4.34941,-2.343014 -1.94845,0.01443 -2.33693,2.426251 -4.29945,2.432595 -1.96253,0.0061 -2.46164,-2.418077 -4.35791,-2.413423 -1.56232,0.0044 -2.71401,2.315771 -3.95283,2.316055"
             id="path7621"
             sodipodi:nodetypes="cszzzsc" /></g></g></g><g
       id="g7643"
       transform="translate(0,106.71741)"
       inkscape:export-filename="g7643.png"
       inkscape:export-xdpi="40.803215"
       inkscape:export-ydpi="40.803215"><rect
         style="fill:#000000;fill-opacity:1;stroke:none;stroke-width:0.2;stroke-linecap:round;paint-order:fill markers stroke"
         id="rect7631"
         width="49.799999"
         height="49.799999"
         x="81.700043"
         y="99.068405"
         inkscape:export-filename="rect184.png"
         inkscape:export-xdpi="25.5"
         inkscape:export-ydpi="25.5" /><text
         xml:space="preserve"
         style="font-style:normal;font-variant:normal;font-weight:normal;font-stretch:normal;font-size:9.80569px;line-height:1.25;font-family:'Amiri Quran Colored';-inkscape-font-specification:'Amiri Quran Colored, Normal';font-variant-ligatures:normal;font-variant-caps:normal;font-variant-numeric:normal;font-variant-east-asian:normal;fill:#ffffff;fill-opacity:1;stroke:none;stroke-width:0.275638"
         x="88.410713"
         y="129.45444"
         id="text7635"><tspan
           sodipodi:role="line"
           id="tspan7633"
           x="88.410713"
           y="129.45444"
           style="font-style:normal;font-variant:normal;font-weight:normal;font-stretch:normal;font-size:9.80569px;font-family:'Amiri Quran Colored';-inkscape-font-specification:'Amiri Quran Colored, Normal';font-variant-ligatures:normal;font-variant-caps:normal;font-variant-numeric:normal;font-variant-east-asian:normal;fill:#ffffff;stroke-width:0.275638">plans</tspan></text><g
         id="g7641"
         clip-path="url(#clipPath6761-6-3)"
         transform="matrix(1.0267628,0,0,1.0267628,-16.064772,52.577275)"
         style="stroke:#ffffff"><path
           style="fill:none;stroke:#ffffff;stroke-width:2.078;stroke-linecap:butt;stroke-linejoin:miter;stroke-dasharray:none;stroke-opacity:1;paint-order:stroke markers fill"
           d="m 127.3767,85.522159 c -1.1587,0.0023 -2.20647,-2.348548 -3.77352,-2.370783 -1.8717,-0.02648 -2.43721,2.343313 -4.37874,2.341113 -1.94149,-0.0026 -2.40098,-2.357462 -4.34941,-2.343014 -1.94845,0.01443 -2.33693,2.426251 -4.29945,2.432595 -1.96253,0.0061 -2.46164,-2.418077 -4.35791,-2.413423 -1.56232,0.0044 -2.71401,2.315771 -3.95283,2.316055"
           id="path7637"
           sodipodi:nodetypes="cszzzsc" /><path
           style="fill:none;stroke:#ffffff;stroke-width:2.078;stroke-linecap:butt;stroke-linejoin:miter;stroke-dasharray:none;stroke-opacity:1;paint-order:stroke markers fill"
           d="m 127.3767,82.155248 c -1.1587,0.0023 -2.20647,-2.348548 -3.77352,-2.370783 -1.8717,-0.02648 -2.43721,2.343313 -4.37874,2.341113 -1.94149,-0.0026 -2.40098,-2.357462 -4.34941,-2.343014 -1.94845,0.01443 -2.33693,2.426251 -4.29945,2.432595 -1.96253,0.0061 -2.46164,-2.418077 -4.35791,-2.413423 -1.56232,0.0044 -2.71401,2.315771 -3.95283,2.316055"
           id="path7639"
           sodipodi:nodetypes="cszzzsc" /></g></g><g
       id="g7659"
       transform="translate(0,106.71741)"
       inkscape:export-filename="../5b09fe6c/logo_color_70x70.png"
       inkscape:export-xdpi="35.702812"
       inkscape:export-ydpi="35.702812"><rect
         style="fill:#032a3a;fill-opacity:1;stroke:none;stroke-width:0.2;stroke-linecap:round;paint-order:fill markers stroke"
         id="rect7647"
         width="49.799999"
         height="49.799999"
         x="138.35001"
         y="99.068405"
         inkscape:export-filename="rect184.png"
         inkscape:export-xdpi="25.5"
         inkscape:export-ydpi="25.5" /><text
         xml:space="preserve"
         style="font-style:normal;font-variant:normal;font-weight:normal;font-stretch:normal;font-size:9.80569px;line-height:1.25;font-family:'Amiri Quran Colored';-inkscape-font-specification:'Amiri Quran Colored, Normal';font-variant-ligatures:normal;font-variant-caps:normal;font-variant-numeric:normal;font-variant-east-asian:normal;fill:#ffffff;fill-opacity:1;stroke:none;stroke-width:0.275638"
         x="145.06075"
         y="129.45444"
         id="text7651"><tspan
           sodipodi:role="line"
           id="tspan7649"
           x="145.06075"
           y="129.45444"
           style="font-style:normal;font-variant:normal;font-weight:normal;font-stretch:normal;font-size:9.80569px;font-family:'Amiri Quran Colored';-inkscape-font-specification:'Amiri Quran Colored, Normal';font-variant-ligatures:normal;font-variant-caps:normal;font-variant-numeric:normal;font-variant-east-asian:normal;fill:#ffffff;stroke-width:0.275638">plans</tspan></text><g
         id="g7657"
         clip-path="url(#clipPath6761-6-3)"
         transform="matrix(1.0267628,0,0,1.0267628,40.585194,52.577275)"
         style="stroke:#ffffff"><path
           style="fill:none;stroke:#ffffff;stroke-width:2.078;stroke-linecap:butt;stroke-linejoin:miter;stroke-dasharray:none;stroke-opacity:1;paint-order:stroke markers fill"
           d="m 127.3767,85.522159 c -1.1587,0.0023 -2.20647,-2.348548 -3.77352,-2.370783 -1.8717,-0.02648 -2.43721,2.343313 -4.37874,2.341113 -1.94149,-0.0026 -2.40098,-2.357462 -4.34941,-2.343014 -1.94845,0.01443 -2.33693,2.426251 -4.29945,2.432595 -1.96253,0.0061 -2.46164,-2.418077 -4.35791,-2.413423 -1.56232,0.0044 -2.71401,2.315771 -3.95283,2.316055"
           id="path7653"
           sodipodi:nodetypes="cszzzsc" /><path
           style="fill:none;stroke:#ffffff;stroke-width:2.078;stroke-linecap:butt;stroke-linejoin:miter;stroke-dasharray:none;stroke-opacity:1;paint-order:stroke markers fill"
           d="m 127.3767,82.155248 c -1.1587,0.0023 -2.20647,-2.348548 -3.77352,-2.370783 -1.8717,-0.02648 -2.43721,2.343313 -4.37874,2.341113 -1.94149,-0.0026 -2.40098,-2.357462 -4.34941,-2.343014 -1.94845,0.01443 -2.33693,2.426251 -4.29945,2.432595 -1.96253,0.0061 -2.46164,-2.418077 -4.35791,-2.413423 -1.56232,0.0044 -2.71401,2.315771 -3.95283,2.316055"
           id="path7655"
           sodipodi:nodetypes="cszzzsc" /></g></g><rect
       style="fill:#03202c;fill-opacity:1;stroke:none;stroke-width:0.152611;stroke-linecap:round;paint-order:fill markers stroke"
       id="rect1892"
       width="38"
       height="38"
       x="55.210491"
       y="21.112236"
       inkscape:export-filename="logo.jpg"
       inkscape:export-xdpi="300"
       inkscape:export-ydpi="300" /><text
       xml:space="preserve"
       style="font-style:normal;font-variant:normal;font-weight:normal;font-stretch:normal;font-size:10.5864px;line-height:1.25;font-family:'Amiri Quran Colored';-inkscape-font-specification:'Amiri Quran Colored, Normal';font-variant-ligatures:normal;font-variant-caps:normal;font-variant-numeric:normal;font-variant-east-asian:normal;fill:#ffffff;fill-opacity:1;stroke:none;stroke-width:0.297586"
       x="59.687794"
       y="41.230934"
       id="text1896"><tspan
         sodipodi:role="line"
         id="tspan1894"
         x="59.687794"
         y="41.230934"
         style="font-style:normal;font-variant:normal;font-weight:normal;font-stretch:normal;font-size:10.5864px;font-family:Consolas;-inkscape-font-specification:Consolas;font-variant-ligatures:normal;font-variant-caps:normal;font-variant-numeric:normal;font-variant-east-asian:normal;fill:#ffffff;stroke-width:0.297586">plans</tspan></text><g
       id="g1902"
       transform="matrix(1.034625,0,0,1,-94.212985,-128.76661)"><path
         style="fill:none;stroke:#ffffff;stroke-width:2.58553;stroke-linecap:butt;stroke-linejoin:miter;stroke-dasharray:none;stroke-opacity:1;paint-order:stroke markers fill"
         d="m 178.8838,182.76812 c -1.47424,0.003 -2.80735,-2.85765 -4.80114,-2.8847 -2.38141,-0.0322 -3.10092,2.85128 -5.57118,2.8486 -2.4702,-0.003 -3.05482,-2.86849 -5.53386,-2.85092 -2.47906,0.0176 -2.97333,2.9522 -5.47029,2.95992 -2.49697,0.007 -3.132,-2.94225 -5.54467,-2.93659 -1.98778,0.005 -3.4531,2.81777 -5.02928,2.81812"
         id="path1898"
         sodipodi:nodetypes="cszzzsc"
         clip-path="url(#clipPath184910)"
         transform="translate(-0.13228703)" /><path
         style="fill:none;stroke:#ffffff;stroke-width:2.58553;stroke-linecap:butt;stroke-linejoin:miter;stroke-dasharray:none;stroke-opacity:1;paint-order:stroke markers fill"
         d="m 178.8838,178.67136 c -1.47424,0.003 -2.80735,-2.85766 -4.80114,-2.88471 -2.38141,-0.0322 -3.10092,2.85128 -5.57118,2.8486 -2.4702,-0.003 -3.05482,-2.86849 -5.53386,-2.85091 -2.47906,0.0175 -2.97333,2.95219 -5.47029,2.95991 -2.49697,0.007 -3.132,-2.94225 -5.54467,-2.93659 -1.98778,0.005 -3.4531,2.81777 -5.02928,2.81812"
         id="path1900"
         sodipodi:nodetypes="cszzzsc"
         clip-path="url(#clipPath184904)"
         transform="translate(-0.13228703,-0.46302082)" /></g><ellipse
       style="fill:none;stroke:#4d4d4d;stroke-width:0.952377;stroke-linecap:round;stroke-linejoin:round;stop-color:#000000"
       id="ellipse1904"
       cx="32.489719"
       cy="40.612236"
       rx="18.023809"
       ry="18.023811" /><rect
       style="fill:#03202c;fill-opacity:1;stroke:none;stroke-width:0.0346638;stroke-linecap:round;paint-order:fill markers stroke"
       id="rect2150"
       width="8.6312513"
       height="8.6312513"
       x="55.210491"
       y="7.8830709"
       inkscape:export-filename="..\Desktop\logo.jpg"
       inkscape:export-xdpi="300"
       inkscape:export-ydpi="300" /><rect
       style="fill:#000000;fill-opacity:1;stroke:none;stroke-width:0.0346638;stroke-linecap:round;paint-order:fill markers stroke"
       id="rect2152"
       width="8.6312513"
       height="8.6312513"
       x="96.695549"
       y="7.8830709"
       inkscape:export-filename="..\Desktop\logo.jpg"
       inkscape:export-xdpi="300"
       inkscape:export-ydpi="300" /><rect
       style="fill:#000000;fill-opacity:1;stroke:none;stroke-width:0.152611;stroke-linecap:round;paint-order:fill markers stroke"
       id="rect2154"
       width="38"
       height="38"
       x="96.504288"
       y="21.112236"
       inkscape:export-filename="..\Desktop\logo.jpg"
       inkscape:export-xdpi="300"
       inkscape:export-ydpi="300" /><text
       xml:space="preserve"
       style="font-style:normal;font-variant:normal;font-weight:normal;font-stretch:normal;font-size:10.5864px;line-height:1.25;font-family:'Amiri Quran Colored';-inkscape-font-specification:'Amiri Quran Colored, Normal';font-variant-ligatures:normal;font-variant-caps:normal;font-variant-numeric:normal;font-variant-east-asian:normal;fill:#ffffff;fill-opacity:1;stroke:none;stroke-width:0.297586"
       x="100.9816"
       y="41.230934"
       id="text2158"><tspan
         sodipodi:role="line"
         id="tspan2156"
         x="100.9816"
         y="41.230934"
         style="font-style:normal;font-variant:normal;font-weight:normal;font-stretch:normal;font-size:10.5864px;font-family:Consolas;-inkscape-font-specification:Consolas;font-variant-ligatures:normal;font-variant-caps:normal;font-variant-numeric:normal;font-variant-east-asian:normal;fill:#ffffff;stroke-width:0.297586">plans</tspan></text><g
       id="g2164"
       transform="matrix(1.034625,0,0,1,-52.919183,-128.76661)"><path
         style="fill:none;stroke:#ffffff;stroke-width:2.58553;stroke-linecap:butt;stroke-linejoin:miter;stroke-dasharray:none;stroke-opacity:1;paint-order:stroke markers fill"
         d="m 178.8838,182.76812 c -1.47424,0.003 -2.80735,-2.85765 -4.80114,-2.8847 -2.38141,-0.0322 -3.10092,2.85128 -5.57118,2.8486 -2.4702,-0.003 -3.05482,-2.86849 -5.53386,-2.85092 -2.47906,0.0176 -2.97333,2.9522 -5.47029,2.95992 -2.49697,0.007 -3.132,-2.94225 -5.54467,-2.93659 -1.98778,0.005 -3.4531,2.81777 -5.02928,2.81812"
         id="path2160"
         sodipodi:nodetypes="cszzzsc"
         clip-path="url(#clipPath184910)"
         transform="translate(-0.13228703)" /><path
         style="fill:none;stroke:#ffffff;stroke-width:2.58553;stroke-linecap:butt;stroke-linejoin:miter;stroke-dasharray:none;stroke-opacity:1;paint-order:stroke markers fill"
         d="m 178.8838,178.67136 c -1.47424,0.003 -2.80735,-2.85766 -4.80114,-2.88471 -2.38141,-0.0322 -3.10092,2.85128 -5.57118,2.8486 -2.4702,-0.003 -3.05482,-2.86849 -5.53386,-2.85091 -2.47906,0.0175 -2.97333,2.95219 -5.47029,2.95991 -2.49697,0.007 -3.132,-2.94225 -5.54467,-2.93659 -1.98778,0.005 -3.4531,2.81777 -5.02928,2.81812"
         id="path2162"
         sodipodi:nodetypes="cszzzsc"
         clip-path="url(#clipPath184904)"
         transform="translate(-0.13228703,-0.46302082)" /></g><rect
       style="fill:#ffffff;fill-opacity:1;stroke:none;stroke-width:0.0346638;stroke-linecap:round;paint-order:fill markers stroke"
       id="rect2373"
       width="8.6312513"
       height="8.6312513"
       x="138.97758"
       y="7.8830709"
       inkscape:export-filename="..\Desktop\logo.jpg"
       inkscape:export-xdpi="300"
       inkscape:export-ydpi="300" /><rect
       style="fill:#ececec;fill-opacity:1;stroke:none;stroke-width:0.152611;stroke-linecap:round;paint-order:fill markers stroke"
       id="rect2375"
       width="38"
       height="38"
       x="138.78633"
       y="21.112236"
       inkscape:export-filename="..\Desktop\logo.jpg"
       inkscape:export-xdpi="300"
       inkscape:export-ydpi="300" /><text
       xml:space="preserve"
       style="font-style:normal;font-variant:normal;font-weight:normal;font-stretch:normal;font-size:10.5864px;line-height:1.25;font-family:'Amiri Quran Colored';-inkscape-font-specification:'Amiri Quran Colored, Normal';font-variant-ligatures:normal;font-variant-caps:normal;font-variant-numeric:normal;font-variant-east-asian:normal;fill:#000000;fill-opacity:1;stroke:none;stroke-width:0.297586"
       x="143.26364"
       y="41.230934"
       id="text2379"><tspan
         sodipodi:role="line"
         id="tspan2377"
         x="143.26364"
         y="41.230934"
         style="font-style:normal;font-variant:normal;font-weight:normal;font-stretch:normal;font-size:10.5864px;font-family:Consolas;-inkscape-font-specification:Consolas;font-variant-ligatures:normal;font-variant-caps:normal;font-variant-numeric:normal;font-variant-east-asian:normal;fill:#000000;stroke-width:0.297586">plans</tspan></text><g
       id="g2385"
       transform="matrix(1.034625,0,0,1,-10.637146,-128.76661)"
       style="stroke:#000000"><path
         style="fill:none;stroke:#000000;stroke-width:2.58553;stroke-linecap:butt;stroke-linejoin:miter;stroke-dasharray:none;stroke-opacity:1;paint-order:stroke markers fill"
         d="m 178.8838,182.76812 c -1.47424,0.003 -2.80735,-2.85765 -4.80114,-2.8847 -2.38141,-0.0322 -3.10092,2.85128 -5.57118,2.8486 -2.4702,-0.003 -3.05482,-2.86849 -5.53386,-2.85092 -2.47906,0.0176 -2.97333,2.9522 -5.47029,2.95992 -2.49697,0.007 -3.132,-2.94225 -5.54467,-2.93659 -1.98778,0.005 -3.4531,2.81777 -5.02928,2.81812"
         id="path2381"
         sodipodi:nodetypes="cszzzsc"
         clip-path="url(#clipPath184910)"
         transform="translate(-0.13228703)" /><path
         style="fill:none;stroke:#000000;stroke-width:2.58553;stroke-linecap:butt;stroke-linejoin:miter;stroke-dasharray:none;stroke-opacity:1;paint-order:stroke markers fill"
         d="m 178.8838,178.67136 c -1.47424,0.003 -2.80735,-2.85766 -4.80114,-2.88471 -2.38141,-0.0322 -3.10092,2.85128 -5.57118,2.8486 -2.4702,-0.003 -3.05482,-2.86849 -5.53386,-2.85091 -2.47906,0.0175 -2.97333,2.95219 -5.47029,2.95991 -2.49697,0.007 -3.132,-2.94225 -5.54467,-2.93659 -1.98778,0.005 -3.4531,2.81777 -5.02928,2.81812"
         id="path2383"
         sodipodi:nodetypes="cszzzsc"
         clip-path="url(#clipPath184904)"
         transform="translate(-0.13228703,-0.46302082)" /></g></g></svg>
